<svg width="185" height="50" xmlns="http://www.w3.org/2000/svg" xmlns:svg="http://www.w3.org/2000/svg">
 <g class="layer">
  <title>Layer 1</title>
  <path d="m28.9525,25c3.0272,-2.1094 5.0453,-5.625 5.0453,-9.6094c0,-6.24997 -4.9677,-11.3281 -11.0997,-11.48435l0,-1.95313c0,-1.09374 -0.8538,-1.95312 -1.9405,-1.95312c-1.0867,0 -1.9405,0.85938 -1.9405,1.95312l0,1.95313l-3.1049,0l0,-1.95313c0,-1.09374 -0.8538,-1.95312 -1.9405,-1.95312c-1.0867,0 -1.9405,0.85938 -1.9405,1.95312l0,1.95313l-6.20965,0l-1.94052,0l-1.94051,0c-1.08669,0 -1.94052,0.85938 -1.94052,1.95313c0,1.09374 0.85383,1.95312 1.94052,1.95312l1.94051,0l0,15.2344l0,3.9062l0,15.2344l-1.94051,0c-1.08669,0 -1.94052,0.8594 -1.94052,1.9531c0,1.0938 0.85383,1.9532 1.94052,1.9532l1.94051,0l1.94052,0l6.20965,0l0,1.9531c0,1.0937 0.8538,1.9531 1.9405,1.9531c1.0867,0 1.9405,-0.8594 1.9405,-1.9531l0,-1.9531l3.1049,0l0,1.9531c0,1.0937 0.8538,1.9531 1.9405,1.9531c1.0867,0 1.9405,-0.8594 1.9405,-1.9531l0,-1.9531c6.132,-0.1563 11.0997,-5.2344 11.0997,-11.4844c0.0777,-3.9844 -1.9405,-7.5 -5.0453,-9.6094zm-21.11282,-17.1875l14.82552,0c4.1915,0 7.6068,3.4375 7.6068,7.6562c0,4.2188 -3.4153,7.6563 -7.6068,7.6563l-14.82552,0l0,-15.3125zm14.74792,34.375l-14.74792,0l0,-15.2344l14.82552,0c4.1915,0 7.6068,3.4375 7.6068,7.6563c0,4.2187 -3.4929,7.5781 -7.6844,7.5781z" fill="#73E09A" id="svg_2"/>
  <text fill="#ffffff" font-family="Monospace" font-size="39" font-weight="bold" id="svg_3" stroke-width="0" style="cursor: move;" text-anchor="middle" x="92.737541" xml:space="preserve" y="36.595814">itCHF</text>
 </g>
</svg>
